<svg id="Layer_1" data-name="Layer 1" xmlns="http://www.w3.org/2000/svg" width="502.88" height="206.45" viewBox="0 0 502.88 206.45">
  <title>job_hunt</title>
  <line x1="242.3" y1="153" x2="216.8" y2="178.5" fill="none" stroke="#868686" stroke-miterlimit="10" stroke-width="8"/>
  <g>
    <path d="M0,129.24l8.8-8.4a14,14,0,0,0,13,7.8c6.9,0,11.2-3.5,12.9-12.2l9.4-46.9h-25l2.2-10.9H59l-11.4,57.1c-3.5,17.6-12,23.91-26,23.91C11.4,139.65,3.9,135.84,0,129.24Z"/>
    <path d="M62.6,105.84c0-17.9,13.2-31.2,31.7-31.2,15.8,0,26,9.2,26,23.4,0,17.9-13.3,31.3-31.8,31.3C72.8,129.34,62.6,119.94,62.6,105.84Zm45.1-7.2c0-8.3-5.1-13.4-14.1-13.4-10.6,0-18.4,8.2-18.4,20,0,8.3,5.1,13.4,14.1,13.4C99.9,118.64,107.7,110.44,107.7,98.64Z"/>
    <path d="M188.9,98c0,18.2-13,31.3-30,31.3-8.7,0-15.3-3.1-18.7-9.2l-1.7,8.5H126.6l14.8-74.2h12.5l-5.1,25.8a25.6,25.6,0,0,1,16.6-5.6C178.5,74.64,188.9,83.24,188.9,98Zm-12.6.6c0-8.3-5.1-13.4-14.1-13.4-10.6,0-18.4,8.2-18.4,20,0,8.3,5.1,13.4,14.1,13.4C168.5,118.64,176.3,110.44,176.3,98.64Z"/>
    <path d="M316.13,44.65l-16.8,84H283.85L290.93,93H247.49l-7.07,35.63h-15.6l16.8-84h15.59l-6.84,34.44h43.44l6.84-34.44Z"/>
    <path d="M383,128.86c-5.67-1.38-9.36-4.94-10.84-9.94-6.12,7.2-14.76,10.56-24.12,10.56-13.8,0-23.15-7.68-23.15-21.71a35.75,35.75,0,0,1,.84-7.68l7.07-35.52h15l-7.08,35.16a24.34,24.34,0,0,0-.48,4.92c0,7.43,4.2,11.64,12.72,11.64,10.68,0,18.24-6,20.76-18.48l6.72-33.24h6.67"/>
    <path d="M456.68,92.64A37.86,37.86,0,0,1,456,99l-5.9,29.6h-12.5l5.8-29.3a21,21,0,0,0,.4-4.1c0-6.2-3.4-9.7-10.7-9.7-9.1,0-15.4,5-17.5,15.4l-5.6,27.7h-12.5l10.6-53.4H420l-1.2,5.9c4.9-4.4,11.3-6.5,18.4-6.5C449,74.64,456.68,80.94,456.68,92.64Z"/>
    <path d="M481.58,110.74a19.53,19.53,0,0,0-.2,2.3c0,3.7,1.9,6,6.2,6a12.74,12.74,0,0,0,7-2.1l2.2,9.2c-3.8,2.4-8.4,3.2-12.9,3.2-8.9,0-15.2-5.3-15.2-14.2a22.16,22.16,0,0,1,.39-4.3l9.51-47.4h12.5l-2.5,12.2h14.3l-2,10h-14.3Z"/>
  </g>
  <path d="M380,127.57A86.54,86.54,0,1,1,388.3,90.5,86.5,86.5,0,0,1,380,127.57" fill="none" stroke="#d53c39" stroke-miterlimit="10" stroke-width="8"/>
  <line x1="229.3" y1="166" x2="193.8" y2="201.5" fill="none" stroke="#969596" stroke-miterlimit="10" stroke-width="14"/>
</svg>
